<svg width="100" height="40" viewBox="0 0 100 40" fill="none" xmlns="http://www.w3.org/2000/svg">
<path d="M6.99223 24.2324H0.262933L9.40788 0H16.3097L25.4547 24.2324H18.7254L17.1725 19.9052H8.54515L6.99223 24.2324ZM10.0981 15.4049H15.6195L12.8588 7.26973L10.0981 15.4049Z" fill="#07060B"/>
<path d="M42.0339 0H48.2456V17.6551C48.2456 20.0783 47.6934 21.8438 46.5891 22.9516C45.5079 24.0363 43.7594 24.5786 41.3437 24.5786H33.4066C30.991 24.5786 29.231 24.0363 28.1267 22.9516C27.0454 21.8438 26.5048 20.0783 26.5048 17.6551V0H32.7164V17.6551C32.7164 19.0398 33.4066 19.7321 34.787 19.7321H39.9634C41.3438 19.7321 42.0339 19.0398 42.0339 17.6551V0Z" fill="#07060B"/>
<path d="M52.3867 0H66.8806C69.2962 0 71.0447 0.553884 72.126 1.66165C73.2303 2.74634 73.7824 4.50031 73.7824 6.92355V10.0392C73.7824 11.9547 73.4603 13.4432 72.8162 14.5048C72.195 15.5665 71.1942 16.2703 69.8139 16.6165L74.1275 24.2324H67.3982L63.4297 16.9627H58.5984V24.2324H52.3867V0ZM67.5708 6.92355C67.5708 5.53884 66.8806 4.84649 65.5002 4.84649H58.5984V12.1162H65.5002C66.8806 12.1162 67.5708 11.4239 67.5708 10.0392V6.92355Z" fill="#07060B"/>
<path d="M81.5376 24.2324H74.8083L83.9532 0H90.8551L100 24.2324H93.2707L91.7178 19.9052H83.0905L81.5376 24.2324ZM84.6434 15.4049H90.1649L87.4041 7.26973L84.6434 15.4049Z" fill="#07060B"/>
<path d="M0.106814 38.3927C1.55237 38.4999 2.69172 38.5535 3.52487 38.5535C3.63169 38.5535 3.7207 38.5178 3.79191 38.4463C3.86312 38.3749 3.89872 38.2856 3.89872 38.1784V37.8034H1.60221C1.11799 37.8034 0.729898 37.657 0.437939 37.3641C0.145979 37.0712 0 36.6819 0 36.1962V35.8211C0 35.3354 0.145979 34.9461 0.437939 34.6532C0.729898 34.3603 1.11799 34.2139 1.60221 34.2139H5.2339V35.6068H2.2431C2.13629 35.6068 2.04727 35.6426 1.97606 35.714C1.90485 35.7854 1.86925 35.8747 1.86925 35.9819C1.86925 36.089 1.90485 36.1783 1.97606 36.2497C2.04727 36.3212 2.13629 36.3569 2.2431 36.3569H4.16576C4.64998 36.3569 5.03807 36.5033 5.33003 36.7962C5.62199 37.0891 5.76797 37.4784 5.76797 37.9641V38.3927C5.76797 38.8785 5.62199 39.2678 5.33003 39.5607C5.03807 39.8536 4.64998 40 4.16576 40C2.90535 40 1.55237 39.9286 0.106814 39.7857V38.3927Z" fill="#07060B"/>
<path d="M10.4686 39.8928C9.7779 39.9643 9.10141 40 8.43916 40C7.95494 40 7.56685 39.8536 7.27489 39.5607C6.98293 39.2678 6.83695 38.8785 6.83695 38.3927V35.6604H6.19606V34.2139H6.83695L7.05058 32.9281H8.7062V34.2139H10.0414V35.6604H8.7062V38.1249C8.7062 38.232 8.7418 38.3213 8.81301 38.3927C8.88422 38.4642 8.97324 38.4999 9.08005 38.4999H10.4686V39.8928Z" fill="#07060B"/>
<path d="M13.3622 34.4282V39.8928H11.493V35.8747H10.6919V34.4282H13.3622ZM11.493 32.2852H13.3622V33.7853H11.493V32.2852Z" fill="#07060B"/>
<path d="M19.454 39.7857C18.1224 39.9286 16.9474 40 15.9291 40C15.4449 40 15.0568 39.8536 14.7648 39.5607C14.4729 39.2678 14.3269 38.8785 14.3269 38.3927V35.9283C14.3269 35.3925 14.4764 34.9747 14.7755 34.6746C15.0817 34.3675 15.5018 34.2139 16.0359 34.2139H19.454V35.6604H16.6234C16.3386 35.6604 16.1961 35.8033 16.1961 36.089V38.1784C16.1961 38.2856 16.2317 38.3749 16.3029 38.4463C16.3742 38.5178 16.4632 38.5535 16.57 38.5535C17.2109 38.5535 18.1722 38.4999 19.454 38.3927V39.7857Z" fill="#07060B"/>
<path d="M22.1756 37.6427V39.8928H20.3064V32.3923H22.1756V36.1962H23.0302L24.2051 34.2139H26.1812L24.579 36.9462L26.1812 39.8928H24.2051L22.9768 37.6427H22.1756Z" fill="#07060B"/>
<path d="M28.7965 35.4461C28.5116 35.4461 28.3692 35.589 28.3692 35.8747V36.464H30.1851V35.8747C30.1851 35.589 30.0426 35.4461 29.7578 35.4461H28.7965ZM31.8407 39.7857C30.4663 39.9286 29.2202 40 28.1022 40C27.6179 40 27.2299 39.8536 26.9379 39.5607C26.6459 39.2678 26.5 38.8785 26.5 38.3927V35.8211C26.5 35.2854 26.6495 34.8675 26.9486 34.5675C27.2548 34.2603 27.6749 34.1067 28.209 34.1067H30.3453C30.8793 34.1067 31.2959 34.2603 31.595 34.5675C31.9012 34.8675 32.0543 35.2854 32.0543 35.8211V37.8034H28.3692V38.232C28.3692 38.3392 28.4048 38.4285 28.476 38.4999C28.5472 38.5713 28.6362 38.607 28.7431 38.607C29.448 38.607 30.4806 38.5535 31.8407 38.4463V39.7857Z" fill="#07060B"/>
<path d="M36.2693 35.7676C35.8207 35.7676 35.3578 35.8747 34.8807 36.089V39.8928H33.0115V34.2139H34.6671L34.7739 34.9104C35.3863 34.3746 36.0272 34.1067 36.6965 34.1067H37.1772V35.7676H36.2693Z" fill="#07060B"/>
<path d="M37.7109 38.3927C39.1564 38.4999 40.2958 38.5535 41.1289 38.5535C41.2357 38.5535 41.3248 38.5178 41.396 38.4463C41.4672 38.3749 41.5028 38.2856 41.5028 38.1784V37.8034H39.2063C38.722 37.8034 38.334 37.657 38.042 37.3641C37.75 37.0712 37.6041 36.6819 37.6041 36.1962V35.8211C37.6041 35.3354 37.75 34.9461 38.042 34.6532C38.334 34.3603 38.722 34.2139 39.2063 34.2139H42.838V35.6068H39.8472C39.7403 35.6068 39.6513 35.6426 39.5801 35.714C39.5089 35.7854 39.4733 35.8747 39.4733 35.9819C39.4733 36.089 39.5089 36.1783 39.5801 36.2497C39.6513 36.3212 39.7403 36.3569 39.8472 36.3569H41.7698C42.254 36.3569 42.6421 36.5033 42.9341 36.7962C43.226 37.0891 43.372 37.4784 43.372 37.9641V38.3927C43.372 38.8785 43.226 39.2678 42.9341 39.5607C42.6421 39.8536 42.254 40 41.7698 40C40.5094 40 39.1564 39.9286 37.7109 39.7857V38.3927Z" fill="#07060B"/>
<path d="M52.3432 39.7857C51.0116 39.9286 49.8366 40 48.8183 40C48.3341 40 47.946 39.8536 47.654 39.5607C47.3621 39.2678 47.2161 38.8785 47.2161 38.3927V35.9283C47.2161 35.3925 47.3656 34.9747 47.6647 34.6746C47.9709 34.3675 48.391 34.2139 48.9251 34.2139H52.3432V35.6604H49.5126C49.2278 35.6604 49.0853 35.8033 49.0853 36.089V38.1784C49.0853 38.2856 49.1209 38.3749 49.1922 38.4463C49.2634 38.5178 49.3524 38.5535 49.4592 38.5535C50.1001 38.5535 51.0614 38.4999 52.3432 38.3927V39.7857Z" fill="#07060B"/>
<path d="M58.9636 38.2856C58.9636 38.8214 58.8105 39.2428 58.5043 39.55C58.2052 39.85 57.7886 40 57.2545 40H54.7978C54.2637 40 53.8436 39.85 53.5374 39.55C53.2383 39.2428 53.0888 38.8214 53.0888 38.2856V35.8211C53.0888 35.2854 53.2383 34.8675 53.5374 34.5675C53.8436 34.2603 54.2637 34.1067 54.7978 34.1067H57.2545C57.7886 34.1067 58.2052 34.2603 58.5043 34.5675C58.8105 34.8675 58.9636 35.2854 58.9636 35.8211V38.2856ZM57.0943 35.9819C57.0943 35.6961 56.9519 35.5533 56.6671 35.5533H55.3853C55.1005 35.5533 54.958 35.6961 54.958 35.9819V38.1249C54.958 38.4106 55.1005 38.5535 55.3853 38.5535H56.6671C56.9519 38.5535 57.0943 38.4106 57.0943 38.1249V35.9819Z" fill="#07060B"/>
<path d="M62.8076 39.8928C62.3305 39.9643 61.8748 40 61.4404 40C61.0132 40 60.6535 39.8536 60.3616 39.5607C60.0696 39.2678 59.9236 38.8785 59.9236 38.3927V32.3923H61.7929V38.1249C61.7929 38.232 61.8285 38.3213 61.8997 38.3927C61.9709 38.4642 62.0599 38.4999 62.1667 38.4999H62.8076V39.8928Z" fill="#07060B"/>
<path d="M66.4377 39.8928C65.9605 39.9643 65.5048 40 65.0704 40C64.6432 40 64.2836 39.8536 63.9916 39.5607C63.6996 39.2678 63.5537 38.8785 63.5537 38.3927V32.3923H65.4229V38.1249C65.4229 38.232 65.4585 38.3213 65.5297 38.3927C65.6009 38.4642 65.6899 38.4999 65.7968 38.4999H66.4377V39.8928Z" fill="#07060B"/>
<path d="M69.3734 35.4461C69.0885 35.4461 68.9461 35.589 68.9461 35.8747V36.464H70.762V35.8747C70.762 35.589 70.6195 35.4461 70.3347 35.4461H69.3734ZM72.4176 39.7857C71.0432 39.9286 69.7971 40 68.6791 40C68.1949 40 67.8068 39.8536 67.5148 39.5607C67.2228 39.2678 67.0769 38.8785 67.0769 38.3927V35.8211C67.0769 35.2854 67.2264 34.8675 67.5255 34.5675C67.8317 34.2603 68.2518 34.1067 68.7859 34.1067H70.9222C71.4563 34.1067 71.8728 34.2603 72.1719 34.5675C72.4781 34.8675 72.6312 35.2854 72.6312 35.8211V37.8034H68.9461V38.232C68.9461 38.3392 68.9817 38.4285 69.0529 38.4999C69.1241 38.5713 69.2132 38.607 69.32 38.607C70.0249 38.607 71.0575 38.5535 72.4176 38.4463V39.7857Z" fill="#07060B"/>
<path d="M78.6086 39.7857C77.277 39.9286 76.1021 40 75.0838 40C74.5995 40 74.2115 39.8536 73.9195 39.5607C73.6275 39.2678 73.4816 38.8785 73.4816 38.3927V35.9283C73.4816 35.3925 73.6311 34.9747 73.9302 34.6746C74.2364 34.3675 74.6565 34.2139 75.1906 34.2139H78.6086V35.6604H75.7781C75.4932 35.6604 75.3508 35.8033 75.3508 36.089V38.1784C75.3508 38.2856 75.3864 38.3749 75.4576 38.4463C75.5288 38.5178 75.6178 38.5535 75.7247 38.5535C76.3655 38.5535 77.3269 38.4999 78.6086 38.3927V39.7857Z" fill="#07060B"/>
<path d="M83.4132 39.8928C82.7225 39.9643 82.046 40 81.3837 40C80.8995 40 80.5114 39.8536 80.2194 39.5607C79.9275 39.2678 79.7815 38.8785 79.7815 38.3927V35.6604H79.1406V34.2139H79.7815L79.9951 32.9281H81.6508V34.2139H82.9859V35.6604H81.6508V38.1249C81.6508 38.232 81.6864 38.3213 81.7576 38.3927C81.8288 38.4642 81.9178 38.4999 82.0246 38.4999H83.4132V39.8928Z" fill="#07060B"/>
<path d="M86.3068 34.4282V39.8928H84.4375V35.8747H83.6364V34.4282H86.3068ZM84.4375 32.2852H86.3068V33.7853H84.4375V32.2852Z" fill="#07060B"/>
<path d="M93.1462 38.2856C93.1462 38.8214 92.9931 39.2428 92.6869 39.55C92.3878 39.85 91.9713 40 91.4372 40H88.9805C88.4464 40 88.0263 39.85 87.7201 39.55C87.421 39.2428 87.2714 38.8214 87.2714 38.2856V35.8211C87.2714 35.2854 87.421 34.8675 87.7201 34.5675C88.0263 34.2603 88.4464 34.1067 88.9805 34.1067H91.4372C91.9713 34.1067 92.3878 34.2603 92.6869 34.5675C92.9931 34.8675 93.1462 35.2854 93.1462 35.8211V38.2856ZM91.277 35.9819C91.277 35.6961 91.1346 35.5533 90.8497 35.5533H89.568C89.2831 35.5533 89.1407 35.6961 89.1407 35.9819V38.1249C89.1407 38.4106 89.2831 38.5535 89.568 38.5535H90.8497C91.1346 38.5535 91.277 38.4106 91.277 38.1249V35.9819Z" fill="#07060B"/>
<path d="M97.2573 35.6604C96.8799 35.6604 96.4527 35.7318 95.9756 35.8747V39.8928H94.1063V34.2139H95.7619L95.8687 34.7496C96.2034 34.5282 96.5452 34.3675 96.8942 34.2675C97.2502 34.1603 97.5493 34.1067 97.7914 34.1067H98.2721C98.7563 34.1067 99.1444 34.2532 99.4363 34.5461C99.7283 34.8389 99.8743 35.2282 99.8743 35.714V39.8928H98.005V36.0354C98.005 35.9283 97.9694 35.839 97.8982 35.7676C97.827 35.6961 97.738 35.6604 97.6312 35.6604H97.2573Z" fill="#07060B"/>
</svg>
