<svg width="32" height="32" viewBox="0 0 32 32" fill="none" xmlns="http://www.w3.org/2000/svg">
<path d="M15.9866 2.66663C8.62663 2.66663 2.66663 8.63996 2.66663 16C2.66663 23.36 8.62663 29.3333 15.9866 29.3333C23.36 29.3333 29.3333 23.36 29.3333 16C29.3333 8.63996 23.36 2.66663 15.9866 2.66663ZM16 26.6666C10.1066 26.6666 5.33329 21.8933 5.33329 16C5.33329 10.1066 10.1066 5.33329 16 5.33329C21.8933 5.33329 26.6666 10.1066 26.6666 16C26.6666 21.8933 21.8933 26.6666 16 26.6666ZM20.6666 14.6666C21.7733 14.6666 22.6666 13.7733 22.6666 12.6666C22.6666 11.56 21.7733 10.6666 20.6666 10.6666C19.56 10.6666 18.6666 11.56 18.6666 12.6666C18.6666 13.7733 19.56 14.6666 20.6666 14.6666ZM11.3333 14.6666C12.44 14.6666 13.3333 13.7733 13.3333 12.6666C13.3333 11.56 12.44 10.6666 11.3333 10.6666C10.2266 10.6666 9.33329 11.56 9.33329 12.6666C9.33329 13.7733 10.2266 14.6666 11.3333 14.6666ZM16 23.3333C19.1066 23.3333 21.7466 21.3866 22.8133 18.6666H9.18663C10.2533 21.3866 12.8933 23.3333 16 23.3333Z" fill="#46F4DB"/>
</svg>
